<svg width="14" height="14" viewBox="0 0 14 14" fill="none" xmlns="http://www.w3.org/2000/svg">
<path d="M1.5 3.5h11a1 1 0 0 1 1 1v5a1 1 0 0 1-1 1h-2v1.25a.75.75 0 0 1-1.5 0V10.5h-6v1.25a.75.75 0 0 1-1.5 0V10.5h-1a1 1 0 0 1-1-1v-5a1 1 0 0 1 1-1zM3 5v3.5h8V5H3zm1.25 1a.75.75 0 0 1 .75.75v.5a.75.75 0 0 1-1.5 0v-.5A.75.75 0 0 1 4.25 6zm2.75 0a.75.75 0 0 1 .75.75v.5a.75.75 0 0 1-1.5 0v-.5A.75.75 0 0 1 7 6zm2.75 0a.75.75 0 0 1 .75.75v.5a.75.75 0 0 1-1.5 0v-.5A.75.75 0 0 1 9.75 6z" fill="#94A3B8"/>
</svg>
